<svg width="41" height="40" viewBox="0 0 41 40" fill="none" xmlns="http://www.w3.org/2000/svg">
<path d="M34.8733 30.0041C36.1222 30.0041 37.1155 29.2183 38.0075 28.1193C39.8332 25.8698 36.8355 24.0721 35.6923 23.1918C34.53 22.2968 33.2323 21.7898 31.9167 21.6708M30.25 18.3375C32.5512 18.3375 34.4167 16.472 34.4167 14.1708C34.4167 11.8696 32.5512 10.0042 30.25 10.0042" stroke="#737373" stroke-width="1.5" stroke-linecap="round"/>
<path d="M5.62643 30.0041C4.3776 30.0041 3.38428 29.2183 2.49242 28.1193C0.666649 25.8698 3.66428 24.0721 4.80758 23.1918C5.96978 22.2968 7.26747 21.7898 8.58317 21.6708M9.4165 18.3375C7.11532 18.3375 5.24983 16.472 5.24983 14.1708C5.24983 11.8696 7.11532 10.0042 9.4165 10.0042" stroke="#737373" stroke-width="1.5" stroke-linecap="round"/>
<path d="M13.7228 25.1895C12.0199 26.2425 7.55482 28.3926 10.2743 31.0831C11.6028 32.3975 13.0824 33.3375 14.9425 33.3375H25.5572C27.4173 33.3375 28.8968 32.3975 30.2253 31.0831C32.9448 28.3926 28.4798 26.2425 26.7768 25.1895C22.7833 22.7201 17.7163 22.7201 13.7228 25.1895Z" stroke="#737373" stroke-width="1.5" stroke-linecap="round" stroke-linejoin="round"/>
<path d="M26.0832 12.5042C26.0832 15.7258 23.4715 18.3375 20.2498 18.3375C17.0282 18.3375 14.4165 15.7258 14.4165 12.5042C14.4165 9.2825 17.0282 6.67084 20.2498 6.67084C23.4715 6.67084 26.0832 9.2825 26.0832 12.5042Z" stroke="#737373" stroke-width="1.5"/>
</svg>
