<svg width="41" height="40" viewBox="0 0 41 40" fill="none" xmlns="http://www.w3.org/2000/svg">
<path d="M13.5835 22.5H26.9168M13.5835 14.1667H20.2502" stroke="#737373" stroke-width="2.5" stroke-linecap="round" stroke-linejoin="round"/>
<path d="M10.4148 31.6667C8.248 31.4535 6.62475 30.8027 5.53611 29.714C3.5835 27.7615 3.5835 24.6187 3.5835 18.3334V17.5C3.5835 11.2146 3.5835 8.07194 5.53611 6.1193C7.48875 4.16669 10.6314 4.16669 16.9168 4.16669H23.5835C29.8688 4.16669 33.0117 4.16669 34.9642 6.1193C36.9168 8.07194 36.9168 11.2146 36.9168 17.5V18.3334C36.9168 24.6187 36.9168 27.7615 34.9642 29.714C33.0117 31.6667 29.8688 31.6667 23.5835 31.6667C22.6493 31.6875 21.9053 31.7585 21.1745 31.925C19.1772 32.3849 17.3277 33.4069 15.4999 34.2982C12.8956 35.568 11.5935 36.203 10.7763 35.6085C9.21298 34.4442 10.7411 30.8365 11.0835 29.1667" stroke="#737373" stroke-width="2.5" stroke-linecap="round"/>
</svg>
