<svg width="25" height="25" viewBox="0 0 25 25" fill="none" xmlns="http://www.w3.org/2000/svg">
<path d="M8.00807 16.0278L15.2713 16.0302C19.7589 16.0317 20.4423 13.2127 21.2714 9.10126C21.5106 7.91536 21.6302 7.32242 21.3432 6.92727C21.0562 6.5321 20.5059 6.53192 19.4053 6.53155L6.01123 6.5271" stroke="#737373" stroke-width="1.5" stroke-linecap="round"/>
<path d="M8.00804 16.0277L5.39092 3.54177C5.16864 2.65135 4.36888 2.0265 3.45115 2.02619L2.5127 2.02588" stroke="#737373" stroke-width="1.5" stroke-linecap="round"/>
<path d="M8.88781 16.0281L8.47638 16.0279C7.11303 16.0275 6.00743 17.1784 6.00696 18.5985C6.00688 18.8352 6.19101 19.0272 6.41824 19.0272L17.5068 19.0309" stroke="#737373" stroke-width="1.5" stroke-linecap="round" stroke-linejoin="round"/>
<path d="M10.5058 22.0286C11.3343 22.0289 12.0061 21.3575 12.0063 20.5291C12.0066 19.7006 11.3353 19.0289 10.5068 19.0286C9.67841 19.0283 9.00661 19.6996 9.00634 20.5281C9.00606 21.3565 9.67741 22.0283 10.5058 22.0286Z" stroke="#737373" stroke-width="1.5"/>
<path d="M17.5058 22.031C18.3343 22.0313 19.0061 21.3599 19.0063 20.5315C19.0066 19.7031 18.3353 19.0313 17.5068 19.031C16.6784 19.0307 16.0066 19.7021 16.0063 20.5305C16.0061 21.3589 16.6774 22.0307 17.5058 22.031Z" stroke="#737373" stroke-width="1.5"/>
</svg>
