<svg width="41" height="40" viewBox="0 0 41 40" fill="none" xmlns="http://www.w3.org/2000/svg">
<path d="M31.777 33.3403H32.594C34.5103 33.3403 36.0347 32.4671 37.4033 31.2463C40.8802 28.1446 32.707 25.0069 29.9168 25.0069M26.5835 8.45489C26.962 8.37982 27.355 8.34027 27.7582 8.34027C30.7913 8.34027 33.2502 10.5789 33.2502 13.3403C33.2502 16.1017 30.7913 18.3403 27.7582 18.3403C27.355 18.3403 26.962 18.3008 26.5835 18.2256" stroke="#737373" stroke-width="1.5" stroke-linecap="round"/>
<path d="M8.21885 26.859C6.2539 27.912 1.1019 30.0621 4.2398 32.7526C5.77265 34.067 7.47985 35.007 9.6262 35.007H21.8738C24.0202 35.007 25.7273 34.067 27.2602 32.7526C30.3982 30.0621 25.2462 27.912 23.2812 26.859C18.6733 24.3896 12.8267 24.3896 8.21885 26.859Z" stroke="#737373" stroke-width="1.5"/>
<path d="M22.4168 12.5069C22.4168 16.1888 19.432 19.1736 15.7502 19.1736C12.0683 19.1736 9.0835 16.1888 9.0835 12.5069C9.0835 8.82504 12.0683 5.84027 15.7502 5.84027C19.432 5.84027 22.4168 8.82504 22.4168 12.5069Z" stroke="#737373" stroke-width="1.5"/>
</svg>
