<svg width="41" height="40" viewBox="0 0 41 40" fill="none" xmlns="http://www.w3.org/2000/svg">
<path d="M35.75 23.1436L35.7498 15.2191C35.7488 13.327 35.7483 12.3809 35.2883 11.5877C34.8283 10.7944 34.0073 10.3312 32.3653 9.40476L23.99 4.67916C22.4063 3.78559 21.6145 3.33881 20.75 3.33881C19.8855 3.33881 19.0937 3.78559 17.51 4.67916L9.13467 9.40476C7.4927 10.3312 6.67172 10.7944 6.21167 11.5877C5.7516 12.3809 5.75115 13.327 5.75022 15.2191L5.75 23.1436C5.75 29.5211 5.75 32.7098 7.70262 34.691C9.65525 36.6721 12.7979 36.6721 19.0833 36.6721H22.4167C28.702 36.6721 31.8448 36.6721 33.7973 34.691C35.75 32.7098 35.75 29.5211 35.75 23.1436Z" stroke="#737373" stroke-width="1.5" stroke-linecap="round"/>
<path d="M17.4168 21.6722H14.0835M27.4168 21.6722H24.0835M17.4168 15.0055H14.0835M17.4168 28.3388H14.0835M27.4168 15.0055H24.0835M27.4168 28.3388H24.0835" stroke="#737373" stroke-width="1.5" stroke-linecap="round"/>
</svg>
